<svg width="160" height="160" viewBox="0 0 160 160" fill="none" xmlns="http://www.w3.org/2000/svg">
<mask id="mask0_1_33" style="mask-type:alpha" maskUnits="userSpaceOnUse" x="0" y="0" width="160" height="160">
<path d="M68 160C30.4446 160 0 129.555 0 92L0 0H92C129.555 0 160 30.4446 160 68V160H68Z" fill="#C4C4C4"/>
</mask>
<g mask="url(#mask0_1_33)">
<path d="M2 1.65685L8.85644 7.31371" stroke="#FF965D" stroke-width="8" stroke-linecap="round" stroke-linejoin="round"/>
<path d="M23.8564 1.65685L30.7129 7.31371" stroke="#FF965D" stroke-width="8" stroke-linecap="round" stroke-linejoin="round"/>
<path d="M45.7129 1.65685L52.5693 7.31371" stroke="#FF965D" stroke-width="8" stroke-linecap="round" stroke-linejoin="round"/>
<path d="M67.5693 1.65685L74.4258 7.31371" stroke="#FF965D" stroke-width="8" stroke-linecap="round" stroke-linejoin="round"/>
<path d="M89.4258 1.65685L96.2822 7.31371" stroke="#FF965D" stroke-width="8" stroke-linecap="round" stroke-linejoin="round"/>
<path d="M111.282 1.65685L118.139 7.31371" stroke="#FF965D" stroke-width="8" stroke-linecap="round" stroke-linejoin="round"/>
<path d="M133.139 1.65685L139.995 7.31371" stroke="#FF965D" stroke-width="8" stroke-linecap="round" stroke-linejoin="round"/>
<path d="M154.995 1.65685L161.852 7.31371" stroke="#FF965D" stroke-width="8" stroke-linecap="round" stroke-linejoin="round"/>
<path d="M2 21.3137L8.85644 26.9706" stroke="#FF965D" stroke-width="8" stroke-linecap="round" stroke-linejoin="round"/>
<path d="M23.8564 21.3137L30.7129 26.9706" stroke="#FF965D" stroke-width="8" stroke-linecap="round" stroke-linejoin="round"/>
<path d="M45.7129 21.3137L52.5693 26.9706" stroke="#FF965D" stroke-width="8" stroke-linecap="round" stroke-linejoin="round"/>
<path d="M67.5693 21.3137L74.4258 26.9706" stroke="#FF965D" stroke-width="8" stroke-linecap="round" stroke-linejoin="round"/>
<path d="M89.4258 21.3137L96.2822 26.9706" stroke="#FF965D" stroke-width="8" stroke-linecap="round" stroke-linejoin="round"/>
<path d="M111.282 21.3137L118.139 26.9706" stroke="#FF965D" stroke-width="8" stroke-linecap="round" stroke-linejoin="round"/>
<path d="M133.139 21.3137L139.995 26.9706" stroke="#FF965D" stroke-width="8" stroke-linecap="round" stroke-linejoin="round"/>
<path d="M154.995 21.3137L161.852 26.9706" stroke="#FF965D" stroke-width="8" stroke-linecap="round" stroke-linejoin="round"/>
<path d="M2 40.9706L8.85644 46.6274" stroke="#FF965D" stroke-width="8" stroke-linecap="round" stroke-linejoin="round"/>
<path d="M23.8564 40.9706L30.7129 46.6274" stroke="#FF965D" stroke-width="8" stroke-linecap="round" stroke-linejoin="round"/>
<path d="M45.7129 40.9706L52.5693 46.6274" stroke="#FF965D" stroke-width="8" stroke-linecap="round" stroke-linejoin="round"/>
<path d="M67.5693 40.9706L74.4258 46.6274" stroke="#FF965D" stroke-width="8" stroke-linecap="round" stroke-linejoin="round"/>
<path d="M89.4258 40.9706L96.2822 46.6274" stroke="#FF965D" stroke-width="8" stroke-linecap="round" stroke-linejoin="round"/>
<path d="M111.282 40.9706L118.139 46.6274" stroke="#FF965D" stroke-width="8" stroke-linecap="round" stroke-linejoin="round"/>
<path d="M133.139 40.9706L139.995 46.6274" stroke="#FF965D" stroke-width="8" stroke-linecap="round" stroke-linejoin="round"/>
<path d="M154.995 40.9706L161.852 46.6274" stroke="#FF965D" stroke-width="8" stroke-linecap="round" stroke-linejoin="round"/>
<path d="M2 60.6274L8.85644 66.2843" stroke="#FF965D" stroke-width="8" stroke-linecap="round" stroke-linejoin="round"/>
<path d="M23.8564 60.6274L30.7129 66.2843" stroke="#FF965D" stroke-width="8" stroke-linecap="round" stroke-linejoin="round"/>
<path d="M45.7129 60.6274L52.5693 66.2843" stroke="#FF965D" stroke-width="8" stroke-linecap="round" stroke-linejoin="round"/>
<path d="M67.5693 60.6274L74.4258 66.2843" stroke="#FF965D" stroke-width="8" stroke-linecap="round" stroke-linejoin="round"/>
<path d="M89.4258 60.6274L96.2822 66.2843" stroke="#FF965D" stroke-width="8" stroke-linecap="round" stroke-linejoin="round"/>
<path d="M111.282 60.6274L118.139 66.2843" stroke="#FF965D" stroke-width="8" stroke-linecap="round" stroke-linejoin="round"/>
<path d="M133.139 60.6274L139.995 66.2843" stroke="#FF965D" stroke-width="8" stroke-linecap="round" stroke-linejoin="round"/>
<path d="M154.995 60.6274L161.852 66.2843" stroke="#FF965D" stroke-width="8" stroke-linecap="round" stroke-linejoin="round"/>
<path d="M2 80.2843L8.85644 85.9411" stroke="#FF965D" stroke-width="8" stroke-linecap="round" stroke-linejoin="round"/>
<path d="M23.8564 80.2843L30.7129 85.9411" stroke="#FF965D" stroke-width="8" stroke-linecap="round" stroke-linejoin="round"/>
<path d="M45.7129 80.2843L52.5693 85.9411" stroke="#FF965D" stroke-width="8" stroke-linecap="round" stroke-linejoin="round"/>
<path d="M67.5693 80.2843L74.4258 85.9411" stroke="#FF965D" stroke-width="8" stroke-linecap="round" stroke-linejoin="round"/>
<path d="M89.4258 80.2843L96.2822 85.9411" stroke="#FF965D" stroke-width="8" stroke-linecap="round" stroke-linejoin="round"/>
<path d="M111.282 80.2843L118.139 85.9411" stroke="#FF965D" stroke-width="8" stroke-linecap="round" stroke-linejoin="round"/>
<path d="M133.139 80.2843L139.995 85.9411" stroke="#FF965D" stroke-width="8" stroke-linecap="round" stroke-linejoin="round"/>
<path d="M154.995 80.2843L161.852 85.9411" stroke="#FF965D" stroke-width="8" stroke-linecap="round" stroke-linejoin="round"/>
<path d="M2 99.9411L8.85644 105.598" stroke="#FF965D" stroke-width="8" stroke-linecap="round" stroke-linejoin="round"/>
<path d="M23.8564 99.9411L30.7129 105.598" stroke="#FF965D" stroke-width="8" stroke-linecap="round" stroke-linejoin="round"/>
<path d="M45.7129 99.9411L52.5693 105.598" stroke="#FF965D" stroke-width="8" stroke-linecap="round" stroke-linejoin="round"/>
<path d="M67.5693 99.9411L74.4258 105.598" stroke="#FF965D" stroke-width="8" stroke-linecap="round" stroke-linejoin="round"/>
<path d="M89.4258 99.9411L96.2822 105.598" stroke="#FF965D" stroke-width="8" stroke-linecap="round" stroke-linejoin="round"/>
<path d="M111.282 99.9411L118.139 105.598" stroke="#FF965D" stroke-width="8" stroke-linecap="round" stroke-linejoin="round"/>
<path d="M133.139 99.9411L139.995 105.598" stroke="#FF965D" stroke-width="8" stroke-linecap="round" stroke-linejoin="round"/>
<path d="M154.995 99.9411L161.852 105.598" stroke="#FF965D" stroke-width="8" stroke-linecap="round" stroke-linejoin="round"/>
<path d="M2 119.598L8.85644 125.255" stroke="#FF965D" stroke-width="8" stroke-linecap="round" stroke-linejoin="round"/>
<path d="M23.8564 119.598L30.7129 125.255" stroke="#FF965D" stroke-width="8" stroke-linecap="round" stroke-linejoin="round"/>
<path d="M45.7129 119.598L52.5693 125.255" stroke="#FF965D" stroke-width="8" stroke-linecap="round" stroke-linejoin="round"/>
<path d="M67.5693 119.598L74.4258 125.255" stroke="#FF965D" stroke-width="8" stroke-linecap="round" stroke-linejoin="round"/>
<path d="M89.4258 119.598L96.2822 125.255" stroke="#FF965D" stroke-width="8" stroke-linecap="round" stroke-linejoin="round"/>
<path d="M111.282 119.598L118.139 125.255" stroke="#FF965D" stroke-width="8" stroke-linecap="round" stroke-linejoin="round"/>
<path d="M133.139 119.598L139.995 125.255" stroke="#FF965D" stroke-width="8" stroke-linecap="round" stroke-linejoin="round"/>
<path d="M154.995 119.598L161.852 125.255" stroke="#FF965D" stroke-width="8" stroke-linecap="round" stroke-linejoin="round"/>
<path d="M2 139.255L8.85644 144.912" stroke="#FF965D" stroke-width="8" stroke-linecap="round" stroke-linejoin="round"/>
<path d="M23.8564 139.255L30.7129 144.912" stroke="#FF965D" stroke-width="8" stroke-linecap="round" stroke-linejoin="round"/>
<path d="M45.7129 139.255L52.5693 144.912" stroke="#FF965D" stroke-width="8" stroke-linecap="round" stroke-linejoin="round"/>
<path d="M67.5693 139.255L74.4258 144.912" stroke="#FF965D" stroke-width="8" stroke-linecap="round" stroke-linejoin="round"/>
<path d="M89.4258 139.255L96.2822 144.912" stroke="#FF965D" stroke-width="8" stroke-linecap="round" stroke-linejoin="round"/>
<path d="M111.282 139.255L118.139 144.912" stroke="#FF965D" stroke-width="8" stroke-linecap="round" stroke-linejoin="round"/>
<path d="M133.139 139.255L139.995 144.912" stroke="#FF965D" stroke-width="8" stroke-linecap="round" stroke-linejoin="round"/>
<path d="M154.995 139.255L161.852 144.912" stroke="#FF965D" stroke-width="8" stroke-linecap="round" stroke-linejoin="round"/>
</g>
</svg>
