<svg width="160" height="160" viewBox="0 0 160 160" fill="none" xmlns="http://www.w3.org/2000/svg">
<mask id="mask0_1_126" style="mask-type:alpha" maskUnits="userSpaceOnUse" x="0" y="0" width="160" height="160">
<path d="M92 160C129.555 160 160 129.555 160 92V0H68C30.4446 0 0 30.4446 0 68V160H92Z" fill="#C4C4C4"/>
</mask>
<g mask="url(#mask0_1_126)">
<path d="M158 1.65685L151.144 7.31371" stroke="#646579" stroke-width="8" stroke-linecap="round" stroke-linejoin="round"/>
<path d="M136.144 1.65685L129.287 7.31371" stroke="#646579" stroke-width="8" stroke-linecap="round" stroke-linejoin="round"/>
<path d="M114.287 1.65685L107.431 7.31371" stroke="#646579" stroke-width="8" stroke-linecap="round" stroke-linejoin="round"/>
<path d="M92.4307 1.65685L85.5742 7.31371" stroke="#646579" stroke-width="8" stroke-linecap="round" stroke-linejoin="round"/>
<path d="M70.5742 1.65685L63.7178 7.31371" stroke="#646579" stroke-width="8" stroke-linecap="round" stroke-linejoin="round"/>
<path d="M48.7178 1.65685L41.8614 7.31371" stroke="#646579" stroke-width="8" stroke-linecap="round" stroke-linejoin="round"/>
<path d="M26.8614 1.65685L20.0049 7.31371" stroke="#646579" stroke-width="8" stroke-linecap="round" stroke-linejoin="round"/>
<path d="M5.00491 1.65685L-1.85153 7.31371" stroke="#646579" stroke-width="8" stroke-linecap="round" stroke-linejoin="round"/>
<path d="M158 21.3137L151.144 26.9706" stroke="#646579" stroke-width="8" stroke-linecap="round" stroke-linejoin="round"/>
<path d="M136.144 21.3137L129.287 26.9706" stroke="#646579" stroke-width="8" stroke-linecap="round" stroke-linejoin="round"/>
<path d="M114.287 21.3137L107.431 26.9706" stroke="#646579" stroke-width="8" stroke-linecap="round" stroke-linejoin="round"/>
<path d="M92.4307 21.3137L85.5742 26.9706" stroke="#646579" stroke-width="8" stroke-linecap="round" stroke-linejoin="round"/>
<path d="M70.5742 21.3137L63.7178 26.9706" stroke="#646579" stroke-width="8" stroke-linecap="round" stroke-linejoin="round"/>
<path d="M48.7178 21.3137L41.8614 26.9706" stroke="#646579" stroke-width="8" stroke-linecap="round" stroke-linejoin="round"/>
<path d="M26.8614 21.3137L20.0049 26.9706" stroke="#646579" stroke-width="8" stroke-linecap="round" stroke-linejoin="round"/>
<path d="M5.00491 21.3137L-1.85153 26.9706" stroke="#646579" stroke-width="8" stroke-linecap="round" stroke-linejoin="round"/>
<path d="M158 40.9706L151.144 46.6274" stroke="#646579" stroke-width="8" stroke-linecap="round" stroke-linejoin="round"/>
<path d="M136.144 40.9706L129.287 46.6274" stroke="#646579" stroke-width="8" stroke-linecap="round" stroke-linejoin="round"/>
<path d="M114.287 40.9706L107.431 46.6274" stroke="#646579" stroke-width="8" stroke-linecap="round" stroke-linejoin="round"/>
<path d="M92.4307 40.9706L85.5742 46.6274" stroke="#646579" stroke-width="8" stroke-linecap="round" stroke-linejoin="round"/>
<path d="M70.5742 40.9706L63.7178 46.6274" stroke="#646579" stroke-width="8" stroke-linecap="round" stroke-linejoin="round"/>
<path d="M48.7178 40.9706L41.8614 46.6274" stroke="#646579" stroke-width="8" stroke-linecap="round" stroke-linejoin="round"/>
<path d="M26.8614 40.9706L20.0049 46.6274" stroke="#646579" stroke-width="8" stroke-linecap="round" stroke-linejoin="round"/>
<path d="M5.00491 40.9706L-1.85153 46.6274" stroke="#646579" stroke-width="8" stroke-linecap="round" stroke-linejoin="round"/>
<path d="M158 60.6274L151.144 66.2843" stroke="#646579" stroke-width="8" stroke-linecap="round" stroke-linejoin="round"/>
<path d="M136.144 60.6274L129.287 66.2843" stroke="#646579" stroke-width="8" stroke-linecap="round" stroke-linejoin="round"/>
<path d="M114.287 60.6274L107.431 66.2843" stroke="#646579" stroke-width="8" stroke-linecap="round" stroke-linejoin="round"/>
<path d="M92.4307 60.6274L85.5742 66.2843" stroke="#646579" stroke-width="8" stroke-linecap="round" stroke-linejoin="round"/>
<path d="M70.5742 60.6274L63.7178 66.2843" stroke="#646579" stroke-width="8" stroke-linecap="round" stroke-linejoin="round"/>
<path d="M48.7178 60.6274L41.8614 66.2843" stroke="#646579" stroke-width="8" stroke-linecap="round" stroke-linejoin="round"/>
<path d="M26.8614 60.6274L20.0049 66.2843" stroke="#646579" stroke-width="8" stroke-linecap="round" stroke-linejoin="round"/>
<path d="M5.00491 60.6274L-1.85153 66.2843" stroke="#646579" stroke-width="8" stroke-linecap="round" stroke-linejoin="round"/>
<path d="M158 80.2843L151.144 85.9411" stroke="#646579" stroke-width="8" stroke-linecap="round" stroke-linejoin="round"/>
<path d="M136.144 80.2843L129.287 85.9411" stroke="#646579" stroke-width="8" stroke-linecap="round" stroke-linejoin="round"/>
<path d="M114.287 80.2843L107.431 85.9411" stroke="#646579" stroke-width="8" stroke-linecap="round" stroke-linejoin="round"/>
<path d="M92.4307 80.2843L85.5742 85.9411" stroke="#646579" stroke-width="8" stroke-linecap="round" stroke-linejoin="round"/>
<path d="M70.5742 80.2843L63.7178 85.9411" stroke="#646579" stroke-width="8" stroke-linecap="round" stroke-linejoin="round"/>
<path d="M48.7178 80.2843L41.8614 85.9411" stroke="#646579" stroke-width="8" stroke-linecap="round" stroke-linejoin="round"/>
<path d="M26.8614 80.2843L20.0049 85.9411" stroke="#646579" stroke-width="8" stroke-linecap="round" stroke-linejoin="round"/>
<path d="M5.00491 80.2843L-1.85153 85.9411" stroke="#646579" stroke-width="8" stroke-linecap="round" stroke-linejoin="round"/>
<path d="M158 99.9411L151.144 105.598" stroke="#646579" stroke-width="8" stroke-linecap="round" stroke-linejoin="round"/>
<path d="M136.144 99.9411L129.287 105.598" stroke="#646579" stroke-width="8" stroke-linecap="round" stroke-linejoin="round"/>
<path d="M114.287 99.9411L107.431 105.598" stroke="#646579" stroke-width="8" stroke-linecap="round" stroke-linejoin="round"/>
<path d="M92.4307 99.9411L85.5742 105.598" stroke="#646579" stroke-width="8" stroke-linecap="round" stroke-linejoin="round"/>
<path d="M70.5742 99.9411L63.7178 105.598" stroke="#646579" stroke-width="8" stroke-linecap="round" stroke-linejoin="round"/>
<path d="M48.7178 99.9411L41.8614 105.598" stroke="#646579" stroke-width="8" stroke-linecap="round" stroke-linejoin="round"/>
<path d="M26.8614 99.9411L20.0049 105.598" stroke="#646579" stroke-width="8" stroke-linecap="round" stroke-linejoin="round"/>
<path d="M5.00491 99.9411L-1.85153 105.598" stroke="#646579" stroke-width="8" stroke-linecap="round" stroke-linejoin="round"/>
<path d="M158 119.598L151.144 125.255" stroke="#646579" stroke-width="8" stroke-linecap="round" stroke-linejoin="round"/>
<path d="M136.144 119.598L129.287 125.255" stroke="#646579" stroke-width="8" stroke-linecap="round" stroke-linejoin="round"/>
<path d="M114.287 119.598L107.431 125.255" stroke="#646579" stroke-width="8" stroke-linecap="round" stroke-linejoin="round"/>
<path d="M92.4307 119.598L85.5742 125.255" stroke="#646579" stroke-width="8" stroke-linecap="round" stroke-linejoin="round"/>
<path d="M70.5742 119.598L63.7178 125.255" stroke="#646579" stroke-width="8" stroke-linecap="round" stroke-linejoin="round"/>
<path d="M48.7178 119.598L41.8614 125.255" stroke="#646579" stroke-width="8" stroke-linecap="round" stroke-linejoin="round"/>
<path d="M26.8614 119.598L20.0049 125.255" stroke="#646579" stroke-width="8" stroke-linecap="round" stroke-linejoin="round"/>
<path d="M5.00491 119.598L-1.85153 125.255" stroke="#646579" stroke-width="8" stroke-linecap="round" stroke-linejoin="round"/>
<path d="M158 139.255L151.144 144.912" stroke="#646579" stroke-width="8" stroke-linecap="round" stroke-linejoin="round"/>
<path d="M136.144 139.255L129.287 144.912" stroke="#646579" stroke-width="8" stroke-linecap="round" stroke-linejoin="round"/>
<path d="M114.287 139.255L107.431 144.912" stroke="#646579" stroke-width="8" stroke-linecap="round" stroke-linejoin="round"/>
<path d="M92.4307 139.255L85.5742 144.912" stroke="#646579" stroke-width="8" stroke-linecap="round" stroke-linejoin="round"/>
<path d="M70.5742 139.255L63.7178 144.912" stroke="#646579" stroke-width="8" stroke-linecap="round" stroke-linejoin="round"/>
<path d="M48.7178 139.255L41.8614 144.912" stroke="#646579" stroke-width="8" stroke-linecap="round" stroke-linejoin="round"/>
<path d="M26.8614 139.255L20.0049 144.912" stroke="#646579" stroke-width="8" stroke-linecap="round" stroke-linejoin="round"/>
<path d="M5.00491 139.255L-1.85153 144.912" stroke="#646579" stroke-width="8" stroke-linecap="round" stroke-linejoin="round"/>
</g>
</svg>
